<?xml version="1.0" encoding="UTF-8" standalone="no"?>
<!-- Created with Inkscape (http://www.inkscape.org/) -->

<svg
   xmlns:dc="http://purl.org/dc/elements/1.1/"
   xmlns:cc="http://creativecommons.org/ns#"
   xmlns:rdf="http://www.w3.org/1999/02/22-rdf-syntax-ns#"
   xmlns:svg="http://www.w3.org/2000/svg"
   xmlns="http://www.w3.org/2000/svg"
   xmlns:sodipodi="http://sodipodi.sourceforge.net/DTD/sodipodi-0.dtd"
   xmlns:inkscape="http://www.inkscape.org/namespaces/inkscape"
   id="svg10882"
   version="1.1"
   inkscape:version="0.91 r13725"
   xml:space="preserve"
   width="765"
   height="990"
   viewBox="0 0 765 990"
   sodipodi:docname="light_detector.svg"><metadata
     id="metadata10888"><rdf:RDF><cc:Work
         rdf:about=""><dc:format>image/svg+xml</dc:format><dc:type
           rdf:resource="http://purl.org/dc/dcmitype/StillImage" /><dc:title></dc:title></cc:Work></rdf:RDF></metadata><defs
     id="defs10886" /><sodipodi:namedview
     pagecolor="#ffffff"
     bordercolor="#666666"
     borderopacity="1"
     objecttolerance="10"
     gridtolerance="10"
     guidetolerance="10"
     inkscape:pageopacity="0"
     inkscape:pageshadow="2"
     inkscape:window-width="1920"
     inkscape:window-height="1017"
     id="namedview10884"
     showgrid="false"
     inkscape:zoom="0.67425"
     inkscape:cx="388.82"
     inkscape:cy="683.95"
     inkscape:window-x="-8"
     inkscape:window-y="-8"
     inkscape:window-maximized="1"
     inkscape:current-layer="g10890" /><g
     id="g10890"
     inkscape:groupmode="layer"
     inkscape:label="light_detector"
     transform="matrix(1.25,0,0,-1.25,0,990)"><path
       d="M 41.062,743.45 43.462,743.45 43.462,743.93 41.062,743.93 41.062,743.45 Z"
       style="fill:#000000;fill-opacity:1;fill-rule:evenodd;stroke:none"
       id="path10912"
       inkscape:connector-curvature="0" /><path
       d="M 41.062,744.89 43.462,744.89 43.462,745.37 41.062,745.37 41.062,744.89 Z"
       style="fill:#000000;fill-opacity:1;fill-rule:evenodd;stroke:none"
       id="path10914"
       inkscape:connector-curvature="0" /><path
       d="M 41.062,746.33 43.462,746.33 43.462,746.81 41.062,746.81 41.062,746.33 Z"
       style="fill:#000000;fill-opacity:1;fill-rule:evenodd;stroke:none"
       id="path10916"
       inkscape:connector-curvature="0" /><path
       d="M 41.062,747.77 43.462,747.77 43.462,748.25 41.062,748.25 41.062,747.77 Z"
       style="fill:#000000;fill-opacity:1;fill-rule:evenodd;stroke:none"
       id="path10918"
       inkscape:connector-curvature="0" /><path
       d="M 41.062,749.21 43.462,749.21 43.462,749.69 41.062,749.69 41.062,749.21 Z"
       style="fill:#000000;fill-opacity:1;fill-rule:evenodd;stroke:none"
       id="path10920"
       inkscape:connector-curvature="0" /><path
       d="M 52.822,749.21 54.982,749.21 54.982,749.69 52.822,749.69 52.822,749.21 Z"
       style="fill:#000000;fill-opacity:1;fill-rule:evenodd;stroke:none"
       id="path10922"
       inkscape:connector-curvature="0" /><path
       d="M 52.822,747.77 54.982,747.77 54.982,748.25 52.822,748.25 52.822,747.77 Z"
       style="fill:#000000;fill-opacity:1;fill-rule:evenodd;stroke:none"
       id="path10924"
       inkscape:connector-curvature="0" /><path
       d="M 52.822,746.33 54.982,746.33 54.982,746.81 52.822,746.81 52.822,746.33 Z"
       style="fill:#000000;fill-opacity:1;fill-rule:evenodd;stroke:none"
       id="path10926"
       inkscape:connector-curvature="0" /><path
       d="M 52.822,744.89 54.982,744.89 54.982,745.37 52.822,745.37 52.822,744.89 Z"
       style="fill:#000000;fill-opacity:1;fill-rule:evenodd;stroke:none"
       id="path10928"
       inkscape:connector-curvature="0" /><path
       d="M 52.822,743.45 54.982,743.45 54.982,743.93 52.822,743.93 52.822,743.45 Z"
       style="fill:#000000;fill-opacity:1;fill-rule:evenodd;stroke:none"
       id="path10930"
       inkscape:connector-curvature="0" /><path
       d="M 69.142,705.77 70.822,705.77 70.822,712.01 69.142,712.01 69.142,705.77 Z"
       style="fill:#000000;fill-opacity:1;fill-rule:evenodd;stroke:none"
       id="path10932"
       inkscape:connector-curvature="0" /><path
       d="M 65.542,705.77 67.222,705.77 67.222,712.01 65.542,712.01 65.542,705.77 Z"
       style="fill:#000000;fill-opacity:1;fill-rule:evenodd;stroke:none"
       id="path10934"
       inkscape:connector-curvature="0" /><path
       d="M 61.942,705.77 63.622,705.77 63.622,712.01 61.942,712.01 61.942,705.77 Z"
       style="fill:#000000;fill-opacity:1;fill-rule:evenodd;stroke:none"
       id="path10936"
       inkscape:connector-curvature="0" /><path
       d="M 58.342,705.77 60.022,705.77 60.022,712.01 58.342,712.01 58.342,705.77 Z"
       style="fill:#000000;fill-opacity:1;fill-rule:evenodd;stroke:none"
       id="path10938"
       inkscape:connector-curvature="0" /><path
       d="M 58.342,720.65 60.022,720.65 60.022,726.89 58.342,726.89 58.342,720.65 Z"
       style="fill:#000000;fill-opacity:1;fill-rule:evenodd;stroke:none"
       id="path10940"
       inkscape:connector-curvature="0" /><path
       d="M 61.942,720.65 63.622,720.65 63.622,726.89 61.942,726.89 61.942,720.65 Z"
       style="fill:#000000;fill-opacity:1;fill-rule:evenodd;stroke:none"
       id="path10942"
       inkscape:connector-curvature="0" /><path
       d="M 69.142,720.65 70.822,720.65 70.822,726.89 69.142,726.89 69.142,720.65 Z"
       style="fill:#000000;fill-opacity:1;fill-rule:evenodd;stroke:none"
       id="path10944"
       inkscape:connector-curvature="0" /><path
       d="M 65.542,720.65 67.222,720.65 67.222,726.89 65.542,726.89 65.542,720.65 Z"
       style="fill:#000000;fill-opacity:1;fill-rule:evenodd;stroke:none"
       id="path10946"
       inkscape:connector-curvature="0" /><path
       d="M 66.742,743.93 69.622,743.93 69.622,746.81 66.742,746.81 66.742,743.93 Z"
       style="fill:#000000;fill-opacity:1;fill-rule:evenodd;stroke:none"
       id="path10948"
       inkscape:connector-curvature="0" /><path
       d="M 66.742,739.13 69.622,739.13 69.622,742.01 66.742,742.01 66.742,739.13 Z"
       style="fill:#000000;fill-opacity:1;fill-rule:evenodd;stroke:none"
       id="path10950"
       inkscape:connector-curvature="0" /><path
       d="M 39.382,702.89 42.262,702.89 42.262,705.77 39.382,705.77 39.382,702.89 Z"
       style="fill:#000000;fill-opacity:1;fill-rule:evenodd;stroke:none"
       id="path10952"
       inkscape:connector-curvature="0" /><path
       d="M 39.382,698.09 42.262,698.09 42.262,700.97 39.382,700.97 39.382,698.09 Z"
       style="fill:#000000;fill-opacity:1;fill-rule:evenodd;stroke:none"
       id="path10954"
       inkscape:connector-curvature="0" /><path
       d="M 57.862,699.05 60.742,699.05 60.742,701.93 57.862,701.93 57.862,699.05 Z"
       style="fill:#000000;fill-opacity:1;fill-rule:evenodd;stroke:none"
       id="path10956"
       inkscape:connector-curvature="0" /><path
       d="M 62.662,699.05 65.542,699.05 65.542,701.93 62.662,701.93 62.662,699.05 Z"
       style="fill:#000000;fill-opacity:1;fill-rule:evenodd;stroke:none"
       id="path10958"
       inkscape:connector-curvature="0" /><path
       d="M 76.342,730.73 79.222,730.73 79.222,733.61 76.342,733.61 76.342,730.73 Z"
       style="fill:#000000;fill-opacity:1;fill-rule:evenodd;stroke:none"
       id="path10960"
       inkscape:connector-curvature="0" /><path
       d="M 71.542,730.73 74.422,730.73 74.422,733.61 71.542,733.61 71.542,730.73 Z"
       style="fill:#000000;fill-opacity:1;fill-rule:evenodd;stroke:none"
       id="path10962"
       inkscape:connector-curvature="0" /><path
       d="M 66.982,730.73 69.862,730.73 69.862,733.61 66.982,733.61 66.982,730.73 Z"
       style="fill:#000000;fill-opacity:1;fill-rule:evenodd;stroke:none"
       id="path10964"
       inkscape:connector-curvature="0" /><path
       d="M 62.182,730.73 65.062,730.73 65.062,733.61 62.182,733.61 62.182,730.73 Z"
       style="fill:#000000;fill-opacity:1;fill-rule:evenodd;stroke:none"
       id="path10966"
       inkscape:connector-curvature="0" /><path
       d="M 39.622,721.37 42.502,721.37 42.502,724.25 39.622,724.25 39.622,721.37 Z"
       style="fill:#000000;fill-opacity:1;fill-rule:evenodd;stroke:none"
       id="path10968"
       inkscape:connector-curvature="0" /><path
       d="M 34.822,721.37 37.702,721.37 37.702,724.25 34.822,724.25 34.822,721.37 Z"
       style="fill:#000000;fill-opacity:1;fill-rule:evenodd;stroke:none"
       id="path10970"
       inkscape:connector-curvature="0" /><path
       d="M 21.622,737.93 24.502,737.93 24.502,740.81 21.622,740.81 21.622,737.93 Z"
       style="fill:#000000;fill-opacity:1;fill-rule:evenodd;stroke:none"
       id="path10972"
       inkscape:connector-curvature="0" /><path
       d="M 16.822,737.93 19.702,737.93 19.702,740.81 16.822,740.81 16.822,737.93 Z"
       style="fill:#000000;fill-opacity:1;fill-rule:evenodd;stroke:none"
       id="path10974"
       inkscape:connector-curvature="0" /><path
       d="M 16.822,745.13 19.702,745.13 19.702,748.01 16.822,748.01 16.822,745.13 Z"
       style="fill:#000000;fill-opacity:1;fill-rule:evenodd;stroke:none"
       id="path10976"
       inkscape:connector-curvature="0" /><path
       d="M 21.622,745.13 24.502,745.13 24.502,748.01 21.622,748.01 21.622,745.13 Z"
       style="fill:#000000;fill-opacity:1;fill-rule:evenodd;stroke:none"
       id="path10978"
       inkscape:connector-curvature="0" /><path
       d="M 26.902,775.37 30.262,775.37 30.262,777.53 26.902,777.53 26.902,775.37 Z"
       style="fill:#000000;fill-opacity:1;fill-rule:evenodd;stroke:none"
       id="path10980"
       inkscape:connector-curvature="0" /><path
       d="M 22.582,775.37 25.942,775.37 25.942,777.53 22.582,777.53 22.582,775.37 Z"
       style="fill:#000000;fill-opacity:1;fill-rule:evenodd;stroke:none"
       id="path10982"
       inkscape:connector-curvature="0" /><path
       d="M 18.262,775.37 21.622,775.37 21.622,777.53 18.262,777.53 18.262,775.37 Z"
       style="fill:#000000;fill-opacity:1;fill-rule:evenodd;stroke:none"
       id="path10984"
       inkscape:connector-curvature="0" /><path
       d="M 18.262,770.33 21.622,770.33 21.622,772.49 18.262,772.49 18.262,770.33 Z"
       style="fill:#000000;fill-opacity:1;fill-rule:evenodd;stroke:none"
       id="path10986"
       inkscape:connector-curvature="0" /><path
       d="M 22.582,770.33 25.942,770.33 25.942,772.49 22.582,772.49 22.582,770.33 Z"
       style="fill:#000000;fill-opacity:1;fill-rule:evenodd;stroke:none"
       id="path10988"
       inkscape:connector-curvature="0" /><path
       d="M 26.902,770.33 30.262,770.33 30.262,772.49 26.902,772.49 26.902,770.33 Z"
       style="fill:#000000;fill-opacity:1;fill-rule:evenodd;stroke:none"
       id="path10990"
       inkscape:connector-curvature="0" /><path
       d="M 60.742,744.41 64.102,744.41 64.102,746.57 60.742,746.57 60.742,744.41 Z"
       style="fill:#000000;fill-opacity:1;fill-rule:evenodd;stroke:none"
       id="path10992"
       inkscape:connector-curvature="0" /><path
       d="M 60.742,739.37 64.102,739.37 64.102,741.53 60.742,741.53 60.742,739.37 Z"
       style="fill:#000000;fill-opacity:1;fill-rule:evenodd;stroke:none"
       id="path10994"
       inkscape:connector-curvature="0" /><path
       d="M 44.902,698.33 48.262,698.33 48.262,700.49 44.902,700.49 44.902,698.33 Z"
       style="fill:#000000;fill-opacity:1;fill-rule:evenodd;stroke:none"
       id="path10996"
       inkscape:connector-curvature="0" /><path
       d="M 44.902,703.37 48.262,703.37 48.262,705.53 44.902,705.53 44.902,703.37 Z"
       style="fill:#000000;fill-opacity:1;fill-rule:evenodd;stroke:none"
       id="path10998"
       inkscape:connector-curvature="0" /><path
       d="M 34.102,701.21 37.462,701.21 37.462,703.37 34.102,703.37 34.102,701.21 Z"
       style="fill:#000000;fill-opacity:1;fill-rule:evenodd;stroke:none"
       id="path11000"
       inkscape:connector-curvature="0" /><path
       d="M 34.102,706.25 37.462,706.25 37.462,708.41 34.102,708.41 34.102,706.25 Z"
       style="fill:#000000;fill-opacity:1;fill-rule:evenodd;stroke:none"
       id="path11002"
       inkscape:connector-curvature="0" /><path
       d="M 35.062,713.93 37.222,713.93 37.222,717.29 35.062,717.29 35.062,713.93 Z"
       style="fill:#000000;fill-opacity:1;fill-rule:evenodd;stroke:none"
       id="path11004"
       inkscape:connector-curvature="0" /><path
       d="M 40.102,713.93 42.262,713.93 42.262,717.29 40.102,717.29 40.102,713.93 Z"
       style="fill:#000000;fill-opacity:1;fill-rule:evenodd;stroke:none"
       id="path11006"
       inkscape:connector-curvature="0" /><path
       d="M 66.742,749.21 68.902,749.21 68.902,752.57 66.742,752.57 66.742,749.21 Z"
       style="fill:#000000;fill-opacity:1;fill-rule:evenodd;stroke:none"
       id="path11008"
       inkscape:connector-curvature="0" /><path
       d="M 61.702,749.21 63.862,749.21 63.862,752.57 61.702,752.57 61.702,749.21 Z"
       style="fill:#000000;fill-opacity:1;fill-rule:evenodd;stroke:none"
       id="path11010"
       inkscape:connector-curvature="0" /></g></svg>