<?xml version="1.0" encoding="UTF-8" standalone="no"?>
<!-- Created with Inkscape (http://www.inkscape.org/) -->

<svg
   xmlns:dc="http://purl.org/dc/elements/1.1/"
   xmlns:cc="http://creativecommons.org/ns#"
   xmlns:rdf="http://www.w3.org/1999/02/22-rdf-syntax-ns#"
   xmlns:svg="http://www.w3.org/2000/svg"
   xmlns="http://www.w3.org/2000/svg"
   xmlns:sodipodi="http://sodipodi.sourceforge.net/DTD/sodipodi-0.dtd"
   xmlns:inkscape="http://www.inkscape.org/namespaces/inkscape"
   id="svg7843"
   version="1.1"
   inkscape:version="0.91 r13725"
   xml:space="preserve"
   width="765"
   height="990"
   viewBox="0 0 765 990"
   sodipodi:docname="light_emitter.svg"><metadata
     id="metadata7849"><rdf:RDF><cc:Work
         rdf:about=""><dc:format>image/svg+xml</dc:format><dc:type
           rdf:resource="http://purl.org/dc/dcmitype/StillImage" /><dc:title></dc:title></cc:Work></rdf:RDF></metadata><defs
     id="defs7847" /><sodipodi:namedview
     pagecolor="#ffffff"
     bordercolor="#666666"
     borderopacity="1"
     objecttolerance="10"
     gridtolerance="10"
     guidetolerance="10"
     inkscape:pageopacity="0"
     inkscape:pageshadow="2"
     inkscape:window-width="1920"
     inkscape:window-height="1017"
     id="namedview7845"
     showgrid="false"
     inkscape:zoom="3.8141"
     inkscape:cx="12.384"
     inkscape:cy="925.43"
     inkscape:window-x="-8"
     inkscape:window-y="-8"
     inkscape:window-maximized="1"
     inkscape:current-layer="g7851" /><g
     id="g7851"
     inkscape:groupmode="layer"
     inkscape:label="light_emitter"
     transform="matrix(1.25,0,0,-1.25,0,990)"><g
       id="g10857"
       transform="translate(-290.29,364.12)"><path
         inkscape:connector-curvature="0"
         id="path7871"
         style="fill:#000000;fill-opacity:1;fill-rule:evenodd;stroke:none"
         d="M 310.08,418.32 312.96,418.32 312.96,421.2 310.08,421.2 310.08,418.32 Z" /><path
         inkscape:connector-curvature="0"
         id="path7873"
         style="fill:#000000;fill-opacity:1;fill-rule:evenodd;stroke:none"
         d="M 314.88,418.32 317.76,418.32 317.76,421.2 314.88,421.2 314.88,418.32 Z" /><path
         inkscape:connector-curvature="0"
         id="path7875"
         style="fill:#000000;fill-opacity:1;fill-rule:evenodd;stroke:none"
         d="M 332.88,394.56 335.76,394.56 335.76,397.44 332.88,397.44 332.88,394.56 Z" /><path
         inkscape:connector-curvature="0"
         id="path7877"
         style="fill:#000000;fill-opacity:1;fill-rule:evenodd;stroke:none"
         d="M 328.08,394.56 330.96,394.56 330.96,397.44 328.08,397.44 328.08,394.56 Z" /><path
         inkscape:connector-curvature="0"
         id="path7879"
         style="fill:#000000;fill-opacity:1;fill-rule:evenodd;stroke:none"
         d="M 304.8,384 307.2,384 307.2,386.16 304.8,386.16 304.8,384 Z" /><path
         inkscape:connector-curvature="0"
         id="path7881"
         style="fill:#000000;fill-opacity:1;fill-rule:evenodd;stroke:none"
         d="M 304.8,378.48 307.2,378.48 307.2,380.64 304.8,380.64 304.8,378.48 Z" /><path
         inkscape:connector-curvature="0"
         id="path7883"
         style="fill:#000000;fill-opacity:1;fill-rule:evenodd;stroke:none"
         d="M 310.8,381.12 313.2,381.12 313.2,383.28 310.8,383.28 310.8,381.12 Z" /><path
         inkscape:connector-curvature="0"
         id="path7885"
         style="fill:#000000;fill-opacity:1;fill-rule:evenodd;stroke:none"
         d="M 336,378 342,378 342,379.44 336,379.44 336,378 Z" /><path
         inkscape:connector-curvature="0"
         id="path7887"
         style="fill:#000000;fill-opacity:1;fill-rule:evenodd;stroke:none"
         d="M 336,381.6 342,381.6 342,383.04 336,383.04 336,381.6 Z" /><path
         inkscape:connector-curvature="0"
         id="path7889"
         style="fill:#000000;fill-opacity:1;fill-rule:evenodd;stroke:none"
         d="M 336,385.2 342,385.2 342,386.64 336,386.64 336,385.2 Z" /><path
         inkscape:connector-curvature="0"
         id="path7891"
         style="fill:#000000;fill-opacity:1;fill-rule:evenodd;stroke:none"
         d="M 336,388.8 342,388.8 342,390.24 336,390.24 336,388.8 Z" /><path
         inkscape:connector-curvature="0"
         id="path7893"
         style="fill:#000000;fill-opacity:1;fill-rule:evenodd;stroke:none"
         d="M 321.12,388.8 327.36,388.8 327.36,390.24 321.12,390.24 321.12,388.8 Z" /><path
         inkscape:connector-curvature="0"
         id="path7895"
         style="fill:#000000;fill-opacity:1;fill-rule:evenodd;stroke:none"
         d="M 321.12,385.2 327.36,385.2 327.36,386.64 321.12,386.64 321.12,385.2 Z" /><path
         inkscape:connector-curvature="0"
         id="path7897"
         style="fill:#000000;fill-opacity:1;fill-rule:evenodd;stroke:none"
         d="M 321.12,381.6 327.36,381.6 327.36,383.04 321.12,383.04 321.12,381.6 Z" /><path
         inkscape:connector-curvature="0"
         id="path7899"
         style="fill:#000000;fill-opacity:1;fill-rule:evenodd;stroke:none"
         d="M 321.12,378 327.36,378 327.36,379.44 321.12,379.44 321.12,378 Z" /><path
         inkscape:connector-curvature="0"
         id="path7901"
         style="fill:#000000;fill-opacity:1;fill-rule:evenodd;stroke:none"
         d="M 302.64,364.08 305.28,364.08 305.28,366.96 302.64,366.96 302.64,364.08 Z" /><path
         inkscape:connector-curvature="0"
         id="path7903"
         style="fill:#000000;fill-opacity:1;fill-rule:evenodd;stroke:none"
         d="M 308.4,364.08 311.04,364.08 311.04,366.96 308.4,366.96 308.4,364.08 Z" /><path
         inkscape:connector-curvature="0"
         id="path7905"
         style="fill:#000000;fill-opacity:1;fill-rule:evenodd;stroke:none"
         d="M 314.16,364.08 316.8,364.08 316.8,366.96 314.16,366.96 314.16,364.08 Z" /><path
         inkscape:connector-curvature="0"
         id="path7907"
         style="fill:#000000;fill-opacity:1;fill-rule:evenodd;stroke:none"
         d="M 314.16,368.88 316.8,368.88 316.8,371.76 314.16,371.76 314.16,368.88 Z" /><path
         inkscape:connector-curvature="0"
         id="path7909"
         style="fill:#000000;fill-opacity:1;fill-rule:evenodd;stroke:none"
         d="M 308.4,368.88 311.04,368.88 311.04,371.76 308.4,371.76 308.4,368.88 Z" /><path
         inkscape:connector-curvature="0"
         id="path7911"
         style="fill:#000000;fill-opacity:1;fill-rule:evenodd;stroke:none"
         d="M 302.64,368.88 305.28,368.88 305.28,371.76 302.64,371.76 302.64,368.88 Z" /><path
         inkscape:connector-curvature="0"
         id="path7913"
         style="fill:#000000;fill-opacity:1;fill-rule:evenodd;stroke:none"
         d="M 296.16,393.84 298.8,393.84 298.8,396.96 296.16,396.96 296.16,393.84 Z" /><path
         inkscape:connector-curvature="0"
         id="path7915"
         style="fill:#000000;fill-opacity:1;fill-rule:evenodd;stroke:none"
         d="M 296.16,398.64 298.8,398.64 298.8,401.76 296.16,401.76 296.16,398.64 Z" /></g></g></svg>