<?xml version="1.0" encoding="UTF-8" standalone="no"?>
<!-- Created with Inkscape (http://www.inkscape.org/) -->

<svg
   xmlns:dc="http://purl.org/dc/elements/1.1/"
   xmlns:cc="http://creativecommons.org/ns#"
   xmlns:rdf="http://www.w3.org/1999/02/22-rdf-syntax-ns#"
   xmlns:svg="http://www.w3.org/2000/svg"
   xmlns="http://www.w3.org/2000/svg"
   xmlns:sodipodi="http://sodipodi.sourceforge.net/DTD/sodipodi-0.dtd"
   xmlns:inkscape="http://www.inkscape.org/namespaces/inkscape"
   id="svg4136"
   version="1.1"
   inkscape:version="0.91 r13725"
   xml:space="preserve"
   width="765"
   height="990"
   viewBox="0 0 765 990"
   sodipodi:docname="light_detector_ALR.svg"><metadata
     id="metadata4142"><rdf:RDF><cc:Work
         rdf:about=""><dc:format>image/svg+xml</dc:format><dc:type
           rdf:resource="http://purl.org/dc/dcmitype/StillImage" /><dc:title></dc:title></cc:Work></rdf:RDF></metadata><defs
     id="defs4140" /><sodipodi:namedview
     pagecolor="#ffffff"
     bordercolor="#666666"
     borderopacity="1"
     objecttolerance="10"
     gridtolerance="10"
     guidetolerance="10"
     inkscape:pageopacity="0"
     inkscape:pageshadow="2"
     inkscape:window-width="1920"
     inkscape:window-height="1017"
     id="namedview4138"
     showgrid="false"
     inkscape:zoom="0.60711"
     inkscape:cx="33.459"
     inkscape:cy="628.75"
     inkscape:window-x="-8"
     inkscape:window-y="-8"
     inkscape:window-maximized="1"
     inkscape:current-layer="g4144" /><g
     id="g4144"
     inkscape:groupmode="layer"
     inkscape:label="light_detector_ALR"
     transform="matrix(1.25,0,0,-1.25,0,990)"><g
       id="g6380"
       transform="translate(-256.95,367.64)"><path
         inkscape:connector-curvature="0"
         id="path4152"
         style="fill:#000000;fill-opacity:1;fill-rule:evenodd;stroke:none"
         d="M 322.32,376.56 324.24,376.56 324.24,379.92 322.32,379.92 322.32,376.56 Z" /><path
         inkscape:connector-curvature="0"
         id="path4154"
         style="fill:#000000;fill-opacity:1;fill-rule:evenodd;stroke:none"
         d="M 322.32,387.12 324.24,387.12 324.24,390.48 322.32,390.48 322.32,387.12 Z" /><path
         inkscape:connector-curvature="0"
         id="path4156"
         style="fill:#000000;fill-opacity:1;fill-rule:evenodd;stroke:none"
         d="M 341.76,387.12 343.68,387.12 343.68,390.48 341.76,390.48 341.76,387.12 Z" /><path
         inkscape:connector-curvature="0"
         id="path4158"
         style="fill:#000000;fill-opacity:1;fill-rule:evenodd;stroke:none"
         d="M 341.76,376.56 343.68,376.56 343.68,379.92 341.76,379.92 341.76,376.56 Z" /><path
         inkscape:connector-curvature="0"
         id="path4160"
         style="fill:#000000;fill-opacity:1;fill-rule:evenodd;stroke:none"
         d="M 336.24,373.92 339.6,373.92 339.6,375.84 336.24,375.84 336.24,373.92 Z" /><path
         inkscape:connector-curvature="0"
         id="path4162"
         style="fill:#000000;fill-opacity:1;fill-rule:evenodd;stroke:none"
         d="M 325.68,373.92 329.04,373.92 329.04,375.84 325.68,375.84 325.68,373.92 Z" /><path
         inkscape:connector-curvature="0"
         id="path4164"
         style="fill:#000000;fill-opacity:1;fill-rule:evenodd;stroke:none"
         d="M 325.68,391.92 329.04,391.92 329.04,393.84 325.68,393.84 325.68,391.92 Z" /><path
         inkscape:connector-curvature="0"
         id="path4166"
         style="fill:#000000;fill-opacity:1;fill-rule:evenodd;stroke:none"
         d="M 336.24,391.92 339.6,391.92 339.6,393.84 336.24,393.84 336.24,391.92 Z" /><path
         inkscape:connector-curvature="0"
         id="path4168"
         style="fill:#000000;fill-opacity:1;fill-rule:evenodd;stroke:none"
         d="M 344.88,408.24 351.12,408.24 351.12,409.92 344.88,409.92 344.88,408.24 Z" /><path
         inkscape:connector-curvature="0"
         id="path4170"
         style="fill:#000000;fill-opacity:1;fill-rule:evenodd;stroke:none"
         d="M 344.88,411.84 351.12,411.84 351.12,413.52 344.88,413.52 344.88,411.84 Z" /><path
         inkscape:connector-curvature="0"
         id="path4172"
         style="fill:#000000;fill-opacity:1;fill-rule:evenodd;stroke:none"
         d="M 344.88,415.44 351.12,415.44 351.12,417.12 344.88,417.12 344.88,415.44 Z" /><path
         inkscape:connector-curvature="0"
         id="path4174"
         style="fill:#000000;fill-opacity:1;fill-rule:evenodd;stroke:none"
         d="M 344.88,419.04 351.12,419.04 351.12,420.72 344.88,420.72 344.88,419.04 Z" /><path
         inkscape:connector-curvature="0"
         id="path4176"
         style="fill:#000000;fill-opacity:1;fill-rule:evenodd;stroke:none"
         d="M 330,419.04 336.24,419.04 336.24,420.72 330,420.72 330,419.04 Z" /><path
         inkscape:connector-curvature="0"
         id="path4178"
         style="fill:#000000;fill-opacity:1;fill-rule:evenodd;stroke:none"
         d="M 330,415.44 336.24,415.44 336.24,417.12 330,417.12 330,415.44 Z" /><path
         inkscape:connector-curvature="0"
         id="path4180"
         style="fill:#000000;fill-opacity:1;fill-rule:evenodd;stroke:none"
         d="M 330,411.84 336.24,411.84 336.24,413.52 330,413.52 330,411.84 Z" /><path
         inkscape:connector-curvature="0"
         id="path4182"
         style="fill:#000000;fill-opacity:1;fill-rule:evenodd;stroke:none"
         d="M 330,408.24 336.24,408.24 336.24,409.92 330,409.92 330,408.24 Z" /><path
         inkscape:connector-curvature="0"
         id="path4184"
         style="fill:#000000;fill-opacity:1;fill-rule:evenodd;stroke:none"
         d="M 277.92,390.24 284.16,390.24 284.16,391.92 277.92,391.92 277.92,390.24 Z" /><path
         inkscape:connector-curvature="0"
         id="path4186"
         style="fill:#000000;fill-opacity:1;fill-rule:evenodd;stroke:none"
         d="M 277.92,386.64 284.16,386.64 284.16,388.32 277.92,388.32 277.92,386.64 Z" /><path
         inkscape:connector-curvature="0"
         id="path4188"
         style="fill:#000000;fill-opacity:1;fill-rule:evenodd;stroke:none"
         d="M 277.92,383.04 284.16,383.04 284.16,384.72 277.92,384.72 277.92,383.04 Z" /><path
         inkscape:connector-curvature="0"
         id="path4190"
         style="fill:#000000;fill-opacity:1;fill-rule:evenodd;stroke:none"
         d="M 277.92,379.44 284.16,379.44 284.16,381.12 277.92,381.12 277.92,379.44 Z" /><path
         inkscape:connector-curvature="0"
         id="path4192"
         style="fill:#000000;fill-opacity:1;fill-rule:evenodd;stroke:none"
         d="M 263.04,379.44 269.28,379.44 269.28,381.12 263.04,381.12 263.04,379.44 Z" /><path
         inkscape:connector-curvature="0"
         id="path4194"
         style="fill:#000000;fill-opacity:1;fill-rule:evenodd;stroke:none"
         d="M 263.04,383.04 269.28,383.04 269.28,384.72 263.04,384.72 263.04,383.04 Z" /><path
         inkscape:connector-curvature="0"
         id="path4196"
         style="fill:#000000;fill-opacity:1;fill-rule:evenodd;stroke:none"
         d="M 263.04,386.64 269.28,386.64 269.28,388.32 263.04,388.32 263.04,386.64 Z" /><path
         inkscape:connector-curvature="0"
         id="path4198"
         style="fill:#000000;fill-opacity:1;fill-rule:evenodd;stroke:none"
         d="M 263.04,390.24 269.28,390.24 269.28,391.92 263.04,391.92 263.04,390.24 Z" /><path
         inkscape:connector-curvature="0"
         id="path4200"
         style="fill:#000000;fill-opacity:1;fill-rule:evenodd;stroke:none"
         d="M 271.92,397.92 274.8,397.92 274.8,400.8 271.92,400.8 271.92,397.92 Z" /><path
         inkscape:connector-curvature="0"
         id="path4202"
         style="fill:#000000;fill-opacity:1;fill-rule:evenodd;stroke:none"
         d="M 276.72,397.92 279.6,397.92 279.6,400.8 276.72,400.8 276.72,397.92 Z" /><path
         inkscape:connector-curvature="0"
         id="path4204"
         style="fill:#000000;fill-opacity:1;fill-rule:evenodd;stroke:none"
         d="M 281.28,403.68 284.16,403.68 284.16,406.56 281.28,406.56 281.28,403.68 Z" /><path
         inkscape:connector-curvature="0"
         id="path4206"
         style="fill:#000000;fill-opacity:1;fill-rule:evenodd;stroke:none"
         d="M 286.08,403.68 288.96,403.68 288.96,406.56 286.08,406.56 286.08,403.68 Z" /><path
         inkscape:connector-curvature="0"
         id="path4208"
         style="fill:#000000;fill-opacity:1;fill-rule:evenodd;stroke:none"
         d="M 336.48,399.36 339.36,399.36 339.36,402.24 336.48,402.24 336.48,399.36 Z" /><path
         inkscape:connector-curvature="0"
         id="path4210"
         style="fill:#000000;fill-opacity:1;fill-rule:evenodd;stroke:none"
         d="M 331.68,399.36 334.56,399.36 334.56,402.24 331.68,402.24 331.68,399.36 Z" /><path
         inkscape:connector-curvature="0"
         id="path4212"
         style="fill:#000000;fill-opacity:1;fill-rule:evenodd;stroke:none"
         d="M 324.72,418.32 327.6,418.32 327.6,421.2 324.72,421.2 324.72,418.32 Z" /><path
         inkscape:connector-curvature="0"
         id="path4214"
         style="fill:#000000;fill-opacity:1;fill-rule:evenodd;stroke:none"
         d="M 324.72,413.52 327.6,413.52 327.6,416.4 324.72,416.4 324.72,413.52 Z" /><path
         inkscape:connector-curvature="0"
         id="path4216"
         style="fill:#000000;fill-opacity:1;fill-rule:evenodd;stroke:none"
         d="M 318.96,414 321.84,414 321.84,416.88 318.96,416.88 318.96,414 Z" /><path
         inkscape:connector-curvature="0"
         id="path4218"
         style="fill:#000000;fill-opacity:1;fill-rule:evenodd;stroke:none"
         d="M 318.96,409.2 321.84,409.2 321.84,412.08 318.96,412.08 318.96,409.2 Z" /><path
         inkscape:connector-curvature="0"
         id="path4220"
         style="fill:#000000;fill-opacity:1;fill-rule:evenodd;stroke:none"
         d="M 305.28,367.44 308.16,367.44 308.16,370.32 305.28,370.32 305.28,367.44 Z" /><path
         inkscape:connector-curvature="0"
         id="path4222"
         style="fill:#000000;fill-opacity:1;fill-rule:evenodd;stroke:none"
         d="M 313.92,367.44 316.8,367.44 316.8,370.32 313.92,370.32 313.92,367.44 Z" /><path
         inkscape:connector-curvature="0"
         id="path4224"
         style="fill:#000000;fill-opacity:1;fill-rule:evenodd;stroke:none"
         d="M 313.92,372.24 316.8,372.24 316.8,375.12 313.92,375.12 313.92,372.24 Z" /><path
         inkscape:connector-curvature="0"
         id="path4226"
         style="fill:#000000;fill-opacity:1;fill-rule:evenodd;stroke:none"
         d="M 305.28,372.24 308.16,372.24 308.16,375.12 305.28,375.12 305.28,372.24 Z" /><path
         inkscape:connector-curvature="0"
         id="path4228"
         style="fill:#000000;fill-opacity:1;fill-rule:evenodd;stroke:none"
         d="M 293.04,376.08 295.92,376.08 295.92,378.96 293.04,378.96 293.04,376.08 Z" /><path
         inkscape:connector-curvature="0"
         id="path4230"
         style="fill:#000000;fill-opacity:1;fill-rule:evenodd;stroke:none"
         d="M 293.04,380.88 295.92,380.88 295.92,383.76 293.04,383.76 293.04,380.88 Z" /><path
         inkscape:connector-curvature="0"
         id="path4232"
         style="fill:#000000;fill-opacity:1;fill-rule:evenodd;stroke:none"
         d="M 259.92,404.16 262.08,404.16 262.08,407.52 259.92,407.52 259.92,404.16 Z" /><path
         inkscape:connector-curvature="0"
         id="path4234"
         style="fill:#000000;fill-opacity:1;fill-rule:evenodd;stroke:none"
         d="M 264.96,404.16 267.12,404.16 267.12,407.52 264.96,407.52 264.96,404.16 Z" /><path
         inkscape:connector-curvature="0"
         id="path4236"
         style="fill:#000000;fill-opacity:1;fill-rule:evenodd;stroke:none"
         d="M 264.96,399.84 267.12,399.84 267.12,403.2 264.96,403.2 264.96,399.84 Z" /><path
         inkscape:connector-curvature="0"
         id="path4238"
         style="fill:#000000;fill-opacity:1;fill-rule:evenodd;stroke:none"
         d="M 259.92,399.84 262.08,399.84 262.08,403.2 259.92,403.2 259.92,399.84 Z" /><path
         inkscape:connector-curvature="0"
         id="path4240"
         style="fill:#000000;fill-opacity:1;fill-rule:evenodd;stroke:none"
         d="M 259.92,395.52 262.08,395.52 262.08,398.88 259.92,398.88 259.92,395.52 Z" /><path
         inkscape:connector-curvature="0"
         id="path4242"
         style="fill:#000000;fill-opacity:1;fill-rule:evenodd;stroke:none"
         d="M 264.96,395.52 267.12,395.52 267.12,398.88 264.96,398.88 264.96,395.52 Z" /><path
         inkscape:connector-curvature="0"
         id="path4244"
         style="fill:#000000;fill-opacity:1;fill-rule:evenodd;stroke:none"
         d="M 281.52,397.68 283.68,397.68 283.68,401.04 281.52,401.04 281.52,397.68 Z" /><path
         inkscape:connector-curvature="0"
         id="path4246"
         style="fill:#000000;fill-opacity:1;fill-rule:evenodd;stroke:none"
         d="M 286.56,397.68 288.72,397.68 288.72,401.04 286.56,401.04 286.56,397.68 Z" /><path
         inkscape:connector-curvature="0"
         id="path4248"
         style="fill:#000000;fill-opacity:1;fill-rule:evenodd;stroke:none"
         d="M 286.56,388.32 288.72,388.32 288.72,391.68 286.56,391.68 286.56,388.32 Z" /><path
         inkscape:connector-curvature="0"
         id="path4250"
         style="fill:#000000;fill-opacity:1;fill-rule:evenodd;stroke:none"
         d="M 291.6,388.32 293.76,388.32 293.76,391.68 291.6,391.68 291.6,388.32 Z" /><path
         inkscape:connector-curvature="0"
         id="path4252"
         style="fill:#000000;fill-opacity:1;fill-rule:evenodd;stroke:none"
         d="M 314.64,376.8 316.8,376.8 316.8,380.16 314.64,380.16 314.64,376.8 Z" /><path
         inkscape:connector-curvature="0"
         id="path4254"
         style="fill:#000000;fill-opacity:1;fill-rule:evenodd;stroke:none"
         d="M 309.6,376.8 311.76,376.8 311.76,380.16 309.6,380.16 309.6,376.8 Z" /><path
         inkscape:connector-curvature="0"
         id="path4256"
         style="fill:#000000;fill-opacity:1;fill-rule:evenodd;stroke:none"
         d="M 305.28,376.8 307.44,376.8 307.44,380.16 305.28,380.16 305.28,376.8 Z" /><path
         inkscape:connector-curvature="0"
         id="path4258"
         style="fill:#000000;fill-opacity:1;fill-rule:evenodd;stroke:none"
         d="M 300.24,376.8 302.4,376.8 302.4,380.16 300.24,380.16 300.24,376.8 Z" /><path
         inkscape:connector-curvature="0"
         id="path4260"
         style="fill:#000000;fill-opacity:1;fill-rule:evenodd;stroke:none"
         d="M 287.04,376.32 290.4,376.32 290.4,378.48 287.04,378.48 287.04,376.32 Z" /><path
         inkscape:connector-curvature="0"
         id="path4262"
         style="fill:#000000;fill-opacity:1;fill-rule:evenodd;stroke:none"
         d="M 287.04,381.36 290.4,381.36 290.4,383.52 287.04,383.52 287.04,381.36 Z" /><path
         inkscape:connector-curvature="0"
         id="path4264"
         style="fill:#000000;fill-opacity:1;fill-rule:evenodd;stroke:none"
         d="M 322.32,400.08 325.68,400.08 325.68,402.24 322.32,402.24 322.32,400.08 Z" /><path
         inkscape:connector-curvature="0"
         id="path4266"
         style="fill:#000000;fill-opacity:1;fill-rule:evenodd;stroke:none"
         d="M 322.32,405.12 325.68,405.12 325.68,407.28 322.32,407.28 322.32,405.12 Z" /></g></g></svg>